<svg xmlns="http://www.w3.org/2000/svg" viewBox="0 0 124.24 66.27"><defs><style>.cls-1,.cls-3,.cls-4{fill:#3e3e3e;}.cls-2{fill:#fff;}.cls-3{font-size:21px;}.cls-3,.cls-4{font-family:HiraginoSansGB-W3-GBpc-EUC-H, Hiragino Sans GB;}.cls-4{font-size:13px;}</style></defs><title>Recurso 1</title><g id="Capa_2" data-name="Capa 2"><g id="Layer_1" data-name="Layer 1"><rect class="cls-1" x="35.37" y="63.46" width="53.5" height="0.83"/><text/><rect class="cls-1" x="17.87" y="16.96" width="4.93" height="49.31"/><rect class="cls-1" x="12.16" y="16.96" width="4.94" height="49.31"/><rect class="cls-1" y="38.88" width="62.12" height="5.47"/><rect class="cls-1" x="6.25" y="29.29" width="4.94" height="24.65"/><rect class="cls-1" x="95.73" y="16.96" width="4.94" height="49.31"/><rect class="cls-1" x="101.43" y="16.96" width="4.93" height="49.31"/><rect class="cls-1" x="107.14" y="16.96" width="4.94" height="49.31"/><rect class="cls-1" x="62.12" y="38.88" width="62.12" height="5.47"/><rect class="cls-1" x="113.05" y="29.29" width="4.94" height="24.65"/><polygon class="cls-2" points="14.12 17.92 13.63 54.34 13.15 17.92 14.12 17.92"/><polygon class="cls-2" points="19.83 17.92 19.35 54.34 18.87 17.92 19.83 17.92"/><polygon class="cls-2" points="25.54 17.92 25.06 54.34 24.58 17.92 25.54 17.92"/><polygon class="cls-2" points="97.8 17.92 97.31 54.34 96.84 17.92 97.8 17.92"/><polygon class="cls-2" points="103.51 17.92 103.03 54.34 102.55 17.92 103.51 17.92"/><polygon class="cls-2" points="109.23 17.92 108.75 54.34 108.27 17.92 109.23 17.92"/><polygon class="cls-1" points="59.95 0 61.41 2.96 64.68 3.43 62.31 5.74 62.87 8.99 59.95 7.45 57.03 8.99 57.59 5.74 55.22 3.43 58.49 2.96 59.95 0"/><polygon class="cls-1" points="76.88 7.36 78.87 8.68 81.08 7.8 80.44 10.09 81.96 11.92 79.58 12.02 78.31 14.03 77.49 11.8 75.18 11.22 77.04 9.74 76.88 7.36"/><polygon class="cls-1" points="90.29 19.38 90.98 20.88 92.6 21.16 91.39 22.27 91.62 23.9 90.19 23.1 88.71 23.82 89.03 22.21 87.89 21.03 89.52 20.84 90.29 19.38"/><polygon class="cls-1" points="43.02 7.36 41.03 8.68 38.82 7.8 39.46 10.09 37.94 11.92 40.32 12.02 41.59 14.03 42.42 11.8 44.73 11.22 42.86 9.74 43.02 7.36"/><polygon class="cls-1" points="29.62 19.38 28.93 20.88 27.3 21.16 28.51 22.27 28.28 23.9 29.72 23.1 31.19 23.82 30.87 22.21 32.02 21.03 30.39 20.84 29.62 19.38"/><text class="cls-3" transform="translate(37.1 61.14)">FIND</text><text class="cls-4" transform="translate(32.71 32.32)">CENTER</text></g></g></svg>